<mxfile host="app.diagrams.net" modified="2023-12-29T17:15:22.145Z" agent="Mozilla/5.0 (Windows NT 10.0; Win64; x64) AppleWebKit/537.36 (KHTML, like Gecko) Chrome/120.0.0.0 Safari/537.36" etag="I-AVBCwG-3c4ADXAxTak" version="22.1.16" type="device">
  <diagram name="Pagină-1" id="wHO_bwbsThAgiEgRk1pU">
    <mxGraphModel dx="1050" dy="530" grid="0" gridSize="10" guides="1" tooltips="1" connect="1" arrows="1" fold="1" page="1" pageScale="1" pageWidth="1169" pageHeight="1654" math="0" shadow="0">
      <root>
        <mxCell id="0" />
        <mxCell id="1" parent="0" />
        <mxCell id="BKa6lrO8mXoM_aZvaMz--61" value="" style="rounded=1;whiteSpace=wrap;html=1;fillColor=#bac8d3;strokeColor=#23445d;shadow=0;" vertex="1" parent="1">
          <mxGeometry x="959.99" y="79" width="130" height="249" as="geometry" />
        </mxCell>
        <mxCell id="BKa6lrO8mXoM_aZvaMz--2" value="" style="rounded=1;whiteSpace=wrap;html=1;fillColor=#ffe6cc;strokeColor=#d79b00;" vertex="1" parent="1">
          <mxGeometry x="320" y="60" width="590" height="430" as="geometry" />
        </mxCell>
        <mxCell id="BKa6lrO8mXoM_aZvaMz--19" value="" style="edgeStyle=orthogonalEdgeStyle;rounded=0;orthogonalLoop=1;jettySize=auto;html=1;entryX=0;entryY=0.5;entryDx=0;entryDy=0;" edge="1" parent="1" source="BKa6lrO8mXoM_aZvaMz--5" target="BKa6lrO8mXoM_aZvaMz--7">
          <mxGeometry relative="1" as="geometry">
            <Array as="points">
              <mxPoint x="550" y="140" />
            </Array>
          </mxGeometry>
        </mxCell>
        <mxCell id="BKa6lrO8mXoM_aZvaMz--5" value="" style="rounded=1;whiteSpace=wrap;html=1;fillColor=#e1d5e7;strokeColor=#9673a6;" vertex="1" parent="1">
          <mxGeometry x="360" y="100" width="120" height="80" as="geometry" />
        </mxCell>
        <mxCell id="BKa6lrO8mXoM_aZvaMz--6" value="&lt;font size=&quot;1&quot;&gt;&lt;b style=&quot;font-size: 15px;&quot;&gt;ADC Module&lt;/b&gt;&lt;/font&gt;" style="text;html=1;strokeColor=none;fillColor=none;align=center;verticalAlign=middle;whiteSpace=wrap;rounded=0;" vertex="1" parent="1">
          <mxGeometry x="380" y="125" width="80" height="35" as="geometry" />
        </mxCell>
        <mxCell id="BKa6lrO8mXoM_aZvaMz--7" value="" style="rounded=1;whiteSpace=wrap;html=1;fillColor=#b0e3e6;strokeColor=#0e8088;" vertex="1" parent="1">
          <mxGeometry x="750" y="115" width="70" height="50" as="geometry" />
        </mxCell>
        <mxCell id="BKa6lrO8mXoM_aZvaMz--8" value="&lt;font style=&quot;font-size: 13px;&quot;&gt;&lt;b style=&quot;&quot;&gt;PWM Module&lt;br&gt;0&lt;/b&gt;°&lt;b style=&quot;font-size: 15px;&quot;&gt;&lt;br&gt;&lt;/b&gt;&lt;/font&gt;" style="text;html=1;strokeColor=none;fillColor=none;align=center;verticalAlign=middle;whiteSpace=wrap;rounded=0;" vertex="1" parent="1">
          <mxGeometry x="745" y="125" width="80" height="35" as="geometry" />
        </mxCell>
        <mxCell id="BKa6lrO8mXoM_aZvaMz--11" style="edgeStyle=orthogonalEdgeStyle;rounded=0;orthogonalLoop=1;jettySize=auto;html=1;exitX=1;exitY=0.5;exitDx=0;exitDy=0;entryX=0;entryY=0.5;entryDx=0;entryDy=0;" edge="1" parent="1" source="BKa6lrO8mXoM_aZvaMz--9" target="BKa6lrO8mXoM_aZvaMz--5">
          <mxGeometry relative="1" as="geometry" />
        </mxCell>
        <mxCell id="BKa6lrO8mXoM_aZvaMz--9" value="" style="rounded=1;whiteSpace=wrap;html=1;fillColor=#f8cecc;strokeColor=#b85450;" vertex="1" parent="1">
          <mxGeometry x="80" y="100" width="120" height="80" as="geometry" />
        </mxCell>
        <mxCell id="BKa6lrO8mXoM_aZvaMz--10" value="&lt;font size=&quot;1&quot;&gt;&lt;b style=&quot;font-size: 15px;&quot;&gt;Sound Sensor&lt;/b&gt;&lt;/font&gt;" style="text;html=1;strokeColor=none;fillColor=none;align=center;verticalAlign=middle;whiteSpace=wrap;rounded=0;" vertex="1" parent="1">
          <mxGeometry x="100" y="125" width="80" height="35" as="geometry" />
        </mxCell>
        <mxCell id="BKa6lrO8mXoM_aZvaMz--12" value="" style="rounded=1;whiteSpace=wrap;html=1;fillColor=#ffcc99;strokeColor=#36393d;" vertex="1" parent="1">
          <mxGeometry x="385" y="200" width="70" height="50" as="geometry" />
        </mxCell>
        <mxCell id="BKa6lrO8mXoM_aZvaMz--16" value="" style="edgeStyle=orthogonalEdgeStyle;rounded=0;orthogonalLoop=1;jettySize=auto;html=1;" edge="1" parent="1">
          <mxGeometry relative="1" as="geometry">
            <mxPoint x="420" y="200" as="sourcePoint" />
            <mxPoint x="420" y="180" as="targetPoint" />
          </mxGeometry>
        </mxCell>
        <mxCell id="BKa6lrO8mXoM_aZvaMz--13" value="&lt;font style=&quot;font-size: 13px;&quot;&gt;&lt;b style=&quot;&quot;&gt;PIT&lt;br&gt;0.5s&lt;br&gt;&lt;/b&gt;&lt;/font&gt;" style="text;html=1;strokeColor=none;fillColor=none;align=center;verticalAlign=middle;whiteSpace=wrap;rounded=0;" vertex="1" parent="1">
          <mxGeometry x="385" y="212.5" width="70" height="30" as="geometry" />
        </mxCell>
        <mxCell id="BKa6lrO8mXoM_aZvaMz--17" value="&lt;font style=&quot;font-size: 14px;&quot;&gt;&lt;b&gt;FRDM-KL25Z Board&lt;/b&gt;&lt;/font&gt;" style="text;html=1;strokeColor=none;fillColor=none;align=center;verticalAlign=middle;whiteSpace=wrap;rounded=0;" vertex="1" parent="1">
          <mxGeometry x="560" y="70" width="110" height="30" as="geometry" />
        </mxCell>
        <mxCell id="BKa6lrO8mXoM_aZvaMz--20" value="" style="rounded=1;whiteSpace=wrap;html=1;fillColor=#dae8fc;strokeColor=#6c8ebf;" vertex="1" parent="1">
          <mxGeometry x="360" y="300" width="120" height="80" as="geometry" />
        </mxCell>
        <mxCell id="BKa6lrO8mXoM_aZvaMz--21" value="&lt;font size=&quot;1&quot;&gt;&lt;b style=&quot;font-size: 15px;&quot;&gt;GPIO Module&lt;/b&gt;&lt;/font&gt;" style="text;html=1;strokeColor=none;fillColor=none;align=center;verticalAlign=middle;whiteSpace=wrap;rounded=0;" vertex="1" parent="1">
          <mxGeometry x="380" y="325" width="80" height="35" as="geometry" />
        </mxCell>
        <mxCell id="BKa6lrO8mXoM_aZvaMz--22" value="" style="rounded=1;whiteSpace=wrap;html=1;fillColor=#ffcc99;strokeColor=#36393d;" vertex="1" parent="1">
          <mxGeometry x="385" y="400" width="70" height="50" as="geometry" />
        </mxCell>
        <mxCell id="BKa6lrO8mXoM_aZvaMz--24" value="" style="edgeStyle=orthogonalEdgeStyle;rounded=0;orthogonalLoop=1;jettySize=auto;html=1;" edge="1" parent="1">
          <mxGeometry relative="1" as="geometry">
            <mxPoint x="420" y="400" as="sourcePoint" />
            <mxPoint x="420" y="380" as="targetPoint" />
          </mxGeometry>
        </mxCell>
        <mxCell id="BKa6lrO8mXoM_aZvaMz--23" value="&lt;font style=&quot;font-size: 13px;&quot;&gt;&lt;b style=&quot;&quot;&gt;PIT&lt;br&gt;1190ms&lt;br&gt;&lt;/b&gt;&lt;/font&gt;" style="text;html=1;strokeColor=none;fillColor=none;align=center;verticalAlign=middle;whiteSpace=wrap;rounded=0;" vertex="1" parent="1">
          <mxGeometry x="385" y="410" width="70" height="30" as="geometry" />
        </mxCell>
        <mxCell id="BKa6lrO8mXoM_aZvaMz--26" value="" style="ellipse;whiteSpace=wrap;html=1;fillColor=#a20025;fontColor=#ffffff;strokeColor=#6F0000;" vertex="1" parent="1">
          <mxGeometry x="580" y="242.5" width="60" height="50" as="geometry" />
        </mxCell>
        <mxCell id="BKa6lrO8mXoM_aZvaMz--27" value="" style="ellipse;whiteSpace=wrap;html=1;fillColor=#008a00;fontColor=#ffffff;strokeColor=#005700;" vertex="1" parent="1">
          <mxGeometry x="580" y="300" width="60" height="50" as="geometry" />
        </mxCell>
        <mxCell id="BKa6lrO8mXoM_aZvaMz--28" value="" style="ellipse;whiteSpace=wrap;html=1;fillColor=#1ba1e2;fontColor=#ffffff;strokeColor=#006EAF;" vertex="1" parent="1">
          <mxGeometry x="580" y="360" width="60" height="50" as="geometry" />
        </mxCell>
        <mxCell id="BKa6lrO8mXoM_aZvaMz--29" value="" style="ellipse;whiteSpace=wrap;html=1;fillColor=#0A0A0A;" vertex="1" parent="1">
          <mxGeometry x="580" y="420" width="60" height="50" as="geometry" />
        </mxCell>
        <mxCell id="BKa6lrO8mXoM_aZvaMz--30" value="&lt;font color=&quot;#ffffff&quot;&gt;Red LED&lt;/font&gt;" style="text;html=1;strokeColor=none;fillColor=none;align=center;verticalAlign=middle;whiteSpace=wrap;rounded=0;" vertex="1" parent="1">
          <mxGeometry x="580" y="252.5" width="60" height="30" as="geometry" />
        </mxCell>
        <mxCell id="BKa6lrO8mXoM_aZvaMz--31" value="&lt;font color=&quot;#ffffff&quot;&gt;Green LED&lt;/font&gt;" style="text;html=1;strokeColor=none;fillColor=none;align=center;verticalAlign=middle;whiteSpace=wrap;rounded=0;" vertex="1" parent="1">
          <mxGeometry x="580" y="310" width="60" height="30" as="geometry" />
        </mxCell>
        <mxCell id="BKa6lrO8mXoM_aZvaMz--32" value="&lt;font color=&quot;#ffffff&quot;&gt;Blue LED&lt;/font&gt;" style="text;html=1;strokeColor=none;fillColor=none;align=center;verticalAlign=middle;whiteSpace=wrap;rounded=0;" vertex="1" parent="1">
          <mxGeometry x="580" y="370" width="60" height="30" as="geometry" />
        </mxCell>
        <mxCell id="BKa6lrO8mXoM_aZvaMz--33" value="&lt;font color=&quot;#ffffff&quot;&gt;Black LED(all off)&lt;/font&gt;" style="text;html=1;strokeColor=none;fillColor=none;align=center;verticalAlign=middle;whiteSpace=wrap;rounded=0;" vertex="1" parent="1">
          <mxGeometry x="580" y="430" width="60" height="30" as="geometry" />
        </mxCell>
        <mxCell id="BKa6lrO8mXoM_aZvaMz--37" value="" style="endArrow=classic;html=1;rounded=0;entryX=0;entryY=0.5;entryDx=0;entryDy=0;" edge="1" parent="1" target="BKa6lrO8mXoM_aZvaMz--31">
          <mxGeometry width="50" height="50" relative="1" as="geometry">
            <mxPoint x="480" y="340" as="sourcePoint" />
            <mxPoint x="300" y="320" as="targetPoint" />
          </mxGeometry>
        </mxCell>
        <mxCell id="BKa6lrO8mXoM_aZvaMz--38" value="" style="endArrow=classic;html=1;rounded=0;entryX=0;entryY=0.5;entryDx=0;entryDy=0;exitX=1;exitY=0.5;exitDx=0;exitDy=0;" edge="1" parent="1" source="BKa6lrO8mXoM_aZvaMz--20" target="BKa6lrO8mXoM_aZvaMz--30">
          <mxGeometry width="50" height="50" relative="1" as="geometry">
            <mxPoint x="530" y="340" as="sourcePoint" />
            <mxPoint x="580" y="290" as="targetPoint" />
          </mxGeometry>
        </mxCell>
        <mxCell id="BKa6lrO8mXoM_aZvaMz--40" value="" style="endArrow=classic;html=1;rounded=0;entryX=0;entryY=0.5;entryDx=0;entryDy=0;" edge="1" parent="1" target="BKa6lrO8mXoM_aZvaMz--33">
          <mxGeometry width="50" height="50" relative="1" as="geometry">
            <mxPoint x="480" y="340" as="sourcePoint" />
            <mxPoint x="520" y="430" as="targetPoint" />
          </mxGeometry>
        </mxCell>
        <mxCell id="BKa6lrO8mXoM_aZvaMz--42" value="" style="endArrow=classic;html=1;rounded=0;entryX=0;entryY=0.5;entryDx=0;entryDy=0;" edge="1" parent="1" target="BKa6lrO8mXoM_aZvaMz--32">
          <mxGeometry width="50" height="50" relative="1" as="geometry">
            <mxPoint x="480" y="340" as="sourcePoint" />
            <mxPoint x="580" y="350" as="targetPoint" />
          </mxGeometry>
        </mxCell>
        <mxCell id="BKa6lrO8mXoM_aZvaMz--43" value="" style="rounded=1;whiteSpace=wrap;html=1;fillColor=#b1ddf0;strokeColor=#10739e;" vertex="1" parent="1">
          <mxGeometry x="750" y="182.5" width="70" height="50" as="geometry" />
        </mxCell>
        <mxCell id="BKa6lrO8mXoM_aZvaMz--44" value="" style="rounded=1;whiteSpace=wrap;html=1;fillColor=#b1ddf0;strokeColor=#10739e;" vertex="1" parent="1">
          <mxGeometry x="750" y="250" width="70" height="50" as="geometry" />
        </mxCell>
        <mxCell id="BKa6lrO8mXoM_aZvaMz--45" value="&lt;font style=&quot;font-size: 13px;&quot;&gt;&lt;b style=&quot;&quot;&gt;PWM Module&lt;br&gt;90&lt;/b&gt;°&lt;b style=&quot;font-size: 15px;&quot;&gt;&lt;br&gt;&lt;/b&gt;&lt;/font&gt;" style="text;html=1;strokeColor=none;fillColor=none;align=center;verticalAlign=middle;whiteSpace=wrap;rounded=0;" vertex="1" parent="1">
          <mxGeometry x="745" y="190" width="80" height="35" as="geometry" />
        </mxCell>
        <mxCell id="BKa6lrO8mXoM_aZvaMz--46" value="&lt;font style=&quot;font-size: 13px;&quot;&gt;&lt;b style=&quot;&quot;&gt;PWM Module&lt;br&gt;180&lt;/b&gt;°&lt;b style=&quot;font-size: 15px;&quot;&gt;&lt;br&gt;&lt;/b&gt;&lt;/font&gt;" style="text;html=1;strokeColor=none;fillColor=none;align=center;verticalAlign=middle;whiteSpace=wrap;rounded=0;" vertex="1" parent="1">
          <mxGeometry x="745" y="257.5" width="80" height="35" as="geometry" />
        </mxCell>
        <mxCell id="BKa6lrO8mXoM_aZvaMz--47" value="" style="endArrow=classic;html=1;rounded=0;exitX=1;exitY=0.5;exitDx=0;exitDy=0;entryX=0;entryY=0.5;entryDx=0;entryDy=0;" edge="1" parent="1" source="BKa6lrO8mXoM_aZvaMz--5" target="BKa6lrO8mXoM_aZvaMz--43">
          <mxGeometry width="50" height="50" relative="1" as="geometry">
            <mxPoint x="560" y="210" as="sourcePoint" />
            <mxPoint x="610" y="160" as="targetPoint" />
          </mxGeometry>
        </mxCell>
        <mxCell id="BKa6lrO8mXoM_aZvaMz--48" value="" style="endArrow=classic;html=1;rounded=0;exitX=1;exitY=0.5;exitDx=0;exitDy=0;" edge="1" parent="1" source="BKa6lrO8mXoM_aZvaMz--5">
          <mxGeometry width="50" height="50" relative="1" as="geometry">
            <mxPoint x="700" y="350" as="sourcePoint" />
            <mxPoint x="750" y="280" as="targetPoint" />
          </mxGeometry>
        </mxCell>
        <mxCell id="BKa6lrO8mXoM_aZvaMz--50" value="&lt;font style=&quot;font-size: 13px;&quot;&gt;&lt;b&gt;[0, 23)&lt;/b&gt;&lt;/font&gt;" style="text;html=1;strokeColor=none;fillColor=none;align=center;verticalAlign=middle;whiteSpace=wrap;rounded=0;" vertex="1" parent="1">
          <mxGeometry x="600" y="115" width="60" height="30" as="geometry" />
        </mxCell>
        <mxCell id="BKa6lrO8mXoM_aZvaMz--51" value="&lt;span style=&quot;font-size: 13px;&quot;&gt;&lt;b&gt;[23, 46)&lt;/b&gt;&lt;/span&gt;" style="text;html=1;strokeColor=none;fillColor=none;align=center;verticalAlign=middle;whiteSpace=wrap;rounded=0;rotation=15;" vertex="1" parent="1">
          <mxGeometry x="630" y="160" width="60" height="30" as="geometry" />
        </mxCell>
        <mxCell id="BKa6lrO8mXoM_aZvaMz--52" value="&lt;span style=&quot;font-size: 13px;&quot;&gt;&lt;b&gt;[46, 68)&lt;/b&gt;&lt;/span&gt;" style="text;html=1;strokeColor=none;fillColor=none;align=center;verticalAlign=middle;whiteSpace=wrap;rounded=0;rotation=30;" vertex="1" parent="1">
          <mxGeometry x="620" y="200" width="50" height="30" as="geometry" />
        </mxCell>
        <mxCell id="BKa6lrO8mXoM_aZvaMz--54" value="" style="shape=image;verticalLabelPosition=bottom;labelBackgroundColor=default;verticalAlign=top;aspect=fixed;imageAspect=0;image=data:image/png,iVBORw0KGgoAAAANSUhEUgAAAGEAAAA1CAYAAABRGYVCAAAAAXNSR0IArs4c6QAAAARnQU1BAACxjwv8YQUAAAAJcEhZcwAADsMAAA7DAcdvqGQAABLwSURBVHhe7VxZjCTZVT2x5p5Ze1dXd0331Azt6m7MjGewZwxeBJblD8z64w8kfrDEh38xm4TE4g+MYECCTyRswEiWEdiWsWyMR1jCQng89nhmPEtvM9Vbde1ZmZUZewTnvKjqNvOZyoFUqV51VGRGRL547557zz33RVZbBRuOWdOU8jznVsBxbFiWZbZJbccKBE0lSVIMhiGGgyEPALbrotmoodGowrbtwysnqx0rENI0xfZ2F2EUI89yHtHULLgEotWqY2qqNZERMZmuMUKTLw2HEaIo5WuansYuSEcCIcsyngsRx0l58YS1YwOCWhKn/F3Q7ASA9k8zvS8BSdOMIJTvJ60dKxDk8Ufk6jgOKpWayQOTnpiPFR0VsjO3owSsiJDxDRATmpTVjhEIJe2oWbaFvMgQxVRIoidFwgkIb38rihwZa4NDNmKNkBEI1goEgyiUB7mbRDF4rCIhS3Pj9SrSbNuD51WZG9zDKwTM5AGgdmxAUIWsOsGgwSYwBIDsbvIFz5vEbc5OVjtWICgzGwy4ZZSnURSYWkERIABSbpOIwjGiIyZgJmT90O9p+MwAUeYF5gqef1BFT1Y7NiCkMrCxb2lk162gWmvcl6uKkB+tIyapHRsQSr4/tDB3EkSW9dbpSSVNHgrHB4SUIJD7ZWJtaZogCgfG8433c7MJykkkvI1NyffIvoqCLEuQpBGNrzxQApMTgZM64W1sJQgPIsHza2jUp4jIgylKQZ2A8Da2VBLVaCPxfrl/a05QRa1omLR2LECQd2dUR9obT+e/OInRP+iXYaFGbFQn6LpJa8fiyVrGmmDt1pZJzDYTgqrlbn8fg8EAp+YXjEzVNFUvVDzHPGmzVVPwOt/34PC849pH8WPqDTUTU0ZmKalbsB3nvuQdZxsJBHHrjfUD3OsmfF0eM71w0462gFNk8IsEQRghjSMaiIUTjVUutGV8rSdgevolitBAVO3q0yVtKLvqnR7RlEdLLy/oyTKOMZnFMzRKyg7eeXEZ9ZoP55CCNEb1I4Obz/FHx77wxW/jtat3TR+wXXSmZtDutLETFoi8Bq9Vlw6vJnC6xADEPcfzvssz+NUPv2PsQIwEwhoB+O3P3MRat0A3phFphLrDwXLYnmNxn6OaD5Fs38QwiLC3fh1FMuDERRlULXHI6pUA8tYWXLPGQz8zxhJA4vKCE9WaaKZqN+XGa2QWSVFEseFRUyHTg08tLeKzf/lxtBq1w0jQSfl0mbA5S7NXJPzRp7+Er33zRdJVAqfWhlNvwK/W4c0vYlBpwfVqqLg+QtEW+1CUWJxTnORYmvLx9T94NxbnmjLD2NpIkL5+e4hekGNrmKIXphhEGfbCBEMaqB+l4Hg57wR+QxPUgD3yc4jeIOI+QpwW9F76tuXQyEDCCcubcw5H+4z7Aa8Z0iiD2bOI3vE4wpVVRKtPIlz+MaRLKwjrLWR+Fe0zq+gsPAqXVPGgWXj5jQB/+/W7BFURdHiURp1fXIY/d5b3JaS8vx555llK57EVVDQ6gdNIuPc9G1XfgU+g5S5hamPIuY67jQRCyIFrKCkp5NxsHRdO17Ey72Np2sGjp1w8/YiPM+0ccW8P97a20T0I6FkOLL+FojqFtDrDbR55bR4ZX8e1Uwj8eXriApoXn0J4/hKylXdyuwTr9BmAlIHWFIp6E87CIuwLq6j8+ONoP/YB9NwWeoZ2ShCOwvoHN2J85fkAwZHRGBaKjIg0GFO6ttl/xCiN+z2Os8cIixhZosbERCsKRVvKqADqPgEigDY7F1OOu40EgmYqj9W0fE5eLwMtG3CWrZqF2aZjckLa20d/dwuJ7aGyTC5dvgzn/HvgrHwQ7srPoHbu3fCWfwLF8uNIlp9AvHAByw8v0VNnYS8swKr4sKsNhQzp2ze3tkhLetWpdXAQZAgrDVQXTpPSZOKyaWS//NNN/PVvPIRmneDcP1Vg/tQ0wojGZxTMrVw0/G9yi+KvSBnBpEO+dgyFJZynCj4BqYqcuextUFcjgaAhM0INh2v8ohOFb8pBVpQbxMc0vPh1ZuERVBYfRlZpInKaiD1Ggd1A5jZJXSEGyVBZD16rBrddgd+uwanSzOzQrbV4EyZm9m+2JIXDfYdADPsxEq8Oq30KzWaLNPIABI2wVmWumGFSPjxiGi+pNBuwZ85gyH4yx8PSoxfh1yqcSwqbRrctUiPzlaLBpuHTNDbVty1w5FhaDh9zGzES5CV6wYRFw8dG+SjxUZ9rkETG5wRzpmi/OYfCrXGj8vBaTKRVs4n/C3K+DO7VK1QgBZMkDU4QXSVMv0mKqZLrqXjkrUweFm/aYOSFvQgB+ZlJh33NoNmYLidicOAgfsTz1fRWGClVe+zXaZ7mZ2voBgcmMV+6vAqfFxQ0eE5aKmhsCYAkpXjgfFRzZEnEORL4ZEJAqJIo5e1alwnonQkHOmBC3hsk2OIm73VpTCVoI+dsGZ60ovekgSOntZi0/fY86nV9Q440U3PRj/VETI8mfdR8H5WC3tyjmtoeINsdoLvRwz5FQFFr0igkjjjgdfpaC/szv0pFZJYoeI8H4k+qiYbWeXq25TOKmjPYZT3Ro8LTXIqYRg6o6oKAns/PsR/zRI5zzAlEQYCCaPxfIBsJBN93STtUErRqvx9gZy/E1k6Ibi/BRi/Ddl/1gAxwZBiPhY6+C+obT8s4IQsHcIsuPTCC62eYbruYJiVJnoqnzzYpN+nxETfwc3a7xa3NLMmIqtXKY26HUeLj/Rd8GlfJswRAVfEREKZe4Hs1HXvsXBWdZgVuZ9EAERGQvQETOOuZ6GAP8XCILAwR7PfR3yZAW/sIBqEB2SZQCaXtuNtIIGhAFSVCTiClUvIt6XyXE8mxdi/Aq3dDI0PVvUotFT6lJ+o33+W7rCu6qNox6qQh12FEkdIG7EsRtDLVwGCXHhnTkH4HdvOsoR54HSbrOWTMJWm0T0ADPPGQj5+9XDdUWBpfD/vLCJDR5QgZf4nL5RAriz5+8ck2PyuKOUBKmZtkdASviviAfTJpRwQgIygOP+sS3EQRokelrG8G/YGxwTjbSCDI4/pRgXPTdawuTuHXP3QKv/kLS3jiHL2VA7+2MUR/qAfvimh6oTQ8J2O83Io5uT3qcuYA3l0Jd6iqmkOhNjG6vsatSmNGuapdDZEg221+nhRETrYsJm+f6sny8fNPsBahnpfRZWg9M4hiRuM+o7MriapeCT3HZaKSr3/uyQ4Td4Vi4DSZcgpRn+KAOcdxKuw/RYtjW8U63nPw77gQvYQpRusUnaWWDuGG28YG42wjVcz9YYyX1uipHPiZmQq9SzRCbX6th9/6myt4gcXc06wXNt+4hX51FvdCVtLkcGntLNsjBW0zQTIHUF7G9MhIRdH8PMM+wOW5NuL9HJu7AdaHCh0mZRrHswJSxYD3pEmFHimu5lfwD594iLVJxSxRlFOxcHOzh689f5X1DPChdz2M1bMzRs0Rchq6LAh/6U+vsPJfRxHsoTHYQYMKqcuaIWI98/h8DR/pPUvnYXXP6wcUFAHvF0QDfPyTn8AHP/pRdTa2NlIkNGsenl7t4H2XpvDIaX3fs0x6D52q4fSs5F5JAdrM2o8MRBUlI2mpwXddszyRkILC8IDAxEjpgTYTckpgdT0/eH+vRbfL52v4ydUpeg37kwJjhPkMu5pbEp6WsgWBlkKurXfxyp1NvLm9je9evWcoSgt0RzlCTNrySIuU0Dals/lDEo5LtYapN7R2xIhqZSFmqJSabh2dagcLjXl06DjjbiOBsNGN8Gf/tIbf+ewbeObLd3FzK8Dmfoz/eHHXUJHoQTK1IDAyjMsJ6kYyAGOCxpeHW8jjodHeSsRmKZo2H0T8RcMOpUIoEWXwOIpx4409vPz6BoEUvZT9K99GaZl45QgGZHY906xiptEieB4WpqqkPV6vgegk/+kb2hFpLU/I8ymTLmVvhZGphToBcju08V/TH8D6zLvw/bkP498aH8E3/Pfje+3381qKgjG3kUC4RUM/92IXX/nONv7iX+/gV565gl/7q+v49D/fwQ9vDdGus0ImEJ7PypkGkJeJiggDDe2S66s0HN/JijRcGgZIuGmFNeIJv8rP0Rg2PV2LeymNxTyNg5RFXEFlpeWFpIchNfDNrcTkkZL3y2R8YWkaH3vvRXzspy7hvatL8AhqygSlPvWFgHu7IVUcuYoOkIc9U4hpGVyVs1PxsMd+/3vQxt9Hj+HZYBF3whSbzDM7CfuvVUsjjLGNBII8O2DS3RtmGJLHr93u4bkrO7i2eYBW28f5uQo61P4hvbpO6tHk9J1Qs4RNl8zByjmrk65IPzmTKp3e88jrNFBKIEIapN4kZVGRJIMt1gL7cmCyBIebUbnEu6SSJnuy8NUX+iyqVNmWCVjRxlvi/FIHl87NoVUVxZVUaDQ/x/DNl3cZcawFmFMsUmCFCimiKrI5BpvO4zdU16gQZX0gRzAVvItERWadMnnMbSQQ5N0pPdutVDA7P4UZhnyHxdapWQ+LHRdLU1RDDH+XA5dc0rODTAtjWhIgxWg1mkzLiKAhc5+VsIewOzBKSuuVG9TpO0hYyDlI+7vI9rYQd28h3r1FCTmkA7Oyjbrc9vGtVwd44bqWxvXUTMY+kqmlZythCyCBL42/SSr9/H8SWH4+3X0NfryHNpNynWA5Fakun3KVUVwlGE3WN3ytpexcc2b1rjwy7jYSCGIW16PfcWANVs/y+pkmB02ba1OjM8OnNDXfioYWwVSgsQ7gJB3XI6WLZgoqooFRRaR6XsLzpJooiTCkJk8pC73TU3A6rG5pCA3WPFtgRVtQqWgxL6aRP/XlHVxd17KCHhbR4+n1+vadMb68mcAIIOWyP/7CGu7s7NOx66RID1P1JgebUNaqKGQRWm3Aq/jcXAOGS0p1PUpl3qugStPrcbeRQBANhORNqRIVV+L8GhVM1afUZBiHh4kvoRG0DuPT+NSdxoOPViJlmJI+RBOEZ5Ai6Uc6YpYVaDXTv6SM06rDnSUYC7Pw5qdR67BmUDRQs2fBBu71Qnzy83v4xg+G6JllE+YagqORcgBM8imeu9rD731uDd+5xgJtsMsouAmH/mEXDvrdPV1JCpKnU90ZWUxHkeEpGmxGgN6L57SONe42Up3w0o0efvfvbuLFjRTLc1WEWYCKlVHU5NQ+BaYqHDi9+/oP3ySH1phUB4ShQGzXkLktTlJKhDIwI7WQFjTJ3PZIWTFWztexQ2D2mIltyRVjyzLpChh5rcdQLIIQ0UHAcKNHN84yr/SZ0KexcrqOJ1lFL02TLukcm/0Ez1/v47U7jK79OxJVjDhGUvcuGq0OclKdxfzQemgZSWsGlq8lETkWJS3v6RKYhldHN8jQIm196fefwsXz06UhxtRGpiPf6HM92KFeZzRoEU+GUiEk2agl4KrDXBD0gd4uLO7doAuXidbmlh/s8FzPeGxBrs4OGCkD1gxBgnB3H3l/x0RRnoQmoRakF/NeNUXcIy2A/TNqeuxr51Vkg3scS4bX1m7jH799B3/+1R38yb+8ic98q4/vvfImRQINT0mcb16Ftb+OSoXJeOs2Qt7XPNWjY+SkJ8nnKKXDiB7Nmhcdh5GhFWFLEWJU3njbSCBIEnYqem5QoEej6ZFfkdmkIPB1Ts+XwrFQbdQwPzPNKKE7723DH/ZQGe6i1l+Hv3MD7vZNoLtBb7wNu78B+2ALm69fQXD9CordTeS3r6EYMgHvvkkD9pBuvc6ccICE10W7d1D01jFlMwIJarHP6/duIO8y+oZ8HzC1d9cIYp/HbiPbeAU42AY1F9oUFBYpKZdjzCygduZhWCzaUlITtRWNz8jkJiKNUgt9rWGJhgQCf8bdRqKjV9Z6+MPP3cJ3b8UM03KFUctDUiguOZwyH6edCJU+OZs436FR4ygkPTDMeTflgyShTueUmQnKaFACJdVQKikr0AjMDlpvarCipXKhjiQbMfnS203FvMPoYjKtUK00Z5dYM7DA6/cRs0ADCyrL9hk5zDuM0iIcwGfmrzcavA/ve9DjnrKWecueXkKlNY1cSb4xywpaIoCkSrNorassDOWrFmYbLp791FNYmh9v1TwSCL1BjGe+eBvfvxkZ6lECPPIPRwtz3LusRDN6+t21exgy8XFWuoxbuWwgvpVmL5hLJCVtU4DFRnWZhMxNPWuvBz0CWalapYI5xmgkI8KThyqx56x6m3PMCzQgVY1yu+qKWl21gHJIhLC3Z/KWlkEcqhzxvUfdf3ZpAZ2FaQxSPdRXItbXXKj2CGidKqnJPpo1Fw+fauCpi3Mc73ijYSQQZFAZ0QgQveXPW5u6Vc9BmJRr8OaSw89RHen/oNA1Wsgzazc8q8lrFfRBhX3/YxqpXt0H+38PW0fL+8lA6k9/x3y0plWeKM8d0Yl5bTbetzx02A7f6MT/URsNhJM21jZSYj5p420nIExAOwFhAtoJCBPQTkCYgHYCwv97A/4HvtBlzZnPDmkAAAAASUVORK5CYII=;" vertex="1" parent="1">
          <mxGeometry x="965.52" y="110" width="118.95" height="65" as="geometry" />
        </mxCell>
        <mxCell id="BKa6lrO8mXoM_aZvaMz--55" value="" style="shape=image;verticalLabelPosition=bottom;labelBackgroundColor=default;verticalAlign=top;aspect=fixed;imageAspect=0;image=data:image/png,iVBORw0KGgoAAAANSUhEUgAAAFoAAAA0CAYAAAAKVi8oAAAAAXNSR0IArs4c6QAAAARnQU1BAACxjwv8YQUAAAAJcEhZcwAADsMAAA7DAcdvqGQAABNmSURBVHhe7ZlbrJxXdcf/33XuM+fMOT4Xn2M7duKEmDiBCFpouZQGeIE+gBpVLaJCqGpKUSUuVaU+0EqlpVceglSpFyHx0AckqPpQtTRp0xbaECAkIQQ7wY6vx47tc585c5/55utv7fFxwyUdsMt5mmXv8932t7+9/2ut/1prj5cimshPXPzrx4n8hGUC9B7JBOg9kgnQeyQToPdIJkDvkUyA3iOZAL1HMgF6j2QC9B7JBOg9kgnQeyQToPdIJkDvkfxI26TDYaoBzcRzf39Q7P6QoZIkceee73HkbPR/JO78xtVIbjx/pfs/TL73iffKHf9Pca/d7Ms/powFejgc6gtfvqjP/9dldQapwtCneQpsfoAf4RN+mijb3lZtc03Pnzojr7mtSilWIRfJ94bWUVEYAL6vwA8VcB7YeRC5b4jzkHu+HaNQSocOhDDgXuA7twtQnL3j8+E0DMEnUBRllMvnlM3G7t1kmHAMFGdC5oTSe30lg4Gba8S8A56l9KODKsWc5ucqCrI59y7Du3d9Ttw13zQdFHKxDu+vKLZ53YKMBbrR6um3/+oZPfrtNe10E2fZATO3ybNkxUysFHkarL6oSiHWxZXL6l45zwI7KKkPxrbQlJ6pA8fzDCybtGd6AlNANZA4t2s/DlELfWKUwNTsG8NmS8Nuh3esg6eoWNLU7CLA+up0Oup2+Q5KGwCqge2h+MjmBYhRGKnVbKjfrPM8UZrJyi/PMK6nbLGopDKvIcrPZjLqJ8wK5RrCPs2+nY0D/dEHX6/3vfMYt039NydjOTph9e3+EJAHymE5U+WsyoVIpXyAtn0Vs572T0fK+kBJ36EC9XpDFMJEgwwAYG1Ynu/OQyU8B3olfqQ0YNHFKaXFaaXlWaX7D2lw6E4N77hbyaGjSg4eUX/5NiW338X1EQ1n5pRfOKzC/FFttT1tDGI1C0vq7Tui3sKrpOX7pH1H5S+/Rv3q7dpUTptNFJ7B6mf2Y80oEV2ZlRvNpSglTQemckd1uIFDBFtAb8yTPjudRF89ueHo81ZkLNB4MX/MnQJVywVVS3lADgHdQPa1OBXp0L5Yw52ati+/pH69wbR5Pn9Iwdxh+YvHlCzeR7tH4fK9XN+tQfUOdUuH1M0vaPH4vQqWDspbPqx0akZ+aUoewCiTl3JFWkFBZVpRdUbTR16tpLSg7fZAvRzKmVpSsHhcwfQB+izKn1qWh9KC2dvllRfkVQ8oXbpHzTSjxsBXYeGIPAwgqdXV31yXBl2FPrQWYB7eQHE4VCZKlc94KtIy8KIppN3tmi/dkowF2rTaR5tg7cA27zHeNieK4M+pXMCERpRglpJiucE8VsYxzc8orSxpWF6SXz2oQYQFA1xmdln+7EGAWlB5Gv6DZ4UbB8WKvDCHNQGyoxcfr4j5lo+Cq+p0h+qFGXn7jyqcv0teXJDPdZDbhxUWaRmFxSVMkjiAIqLp2+QVeMa7Q8ZrDYaqLKJ8C9iA5w16zr/SYVeDfptA3lXSb3HdY42DUXzB6gNHI7cmPxJ1JIBtMkSvllWYlxl/2jFvQczOMwUWNa3c4p0EmxwglHFZrC4EgAggAa/PuwmuisMqKGCppZIytKgyC70UALwKvlkWBciQdmrE3R9oGv7stBJ10whLhWJQYpifVoh1xwS51x/K6oM/k9fHHsjro28v6cHXxLpzPo9hQBUJRgHYzpOYdhtj2HfoDsVZlG7uOujD6Rzh9dRiCsdBrwOf9xy1GK1Et8DNuzIeaCbaaKF1zgfJALAGHIkaSI+jgedjzRa2hvCutTQsaBiXsLY81gnoPtTiAk0WzyAryAIU0bRYzfNexHWZPrxLsHJjAYZH/7Q3UJh4atW6arUNMKglW4Xvszwc6v4Dkf7kPXl94t05/eJP5fXA8ZzecV9OH/i5kv78fVX97rtLunOppOLUPme5US7r5mvWvXgYaiN7Sl2wNn32mSMfxVtxTaydNXPExPFcVn+LWI/NOlZWG/rNh5/S18/XNFXJwVmWMvXV63RVzEc6Usnq2P6SHv3S17Qz8NTMzKndrrsg6IUxB8AFFLMWL+1ggX1YgpSKrKLDIpdnK7oKkI02mQKLaW1saVCvAzoWhe2bhr0s1om3yI2HAr1Y77q3qF99U0FZyy/dEixHsM6W3RjZMBgu1yEw15tmLKasnhr1tra2GhiBr2urG1pvp6rRp9X3tMPRPNji3jD1uQc/91J94J336NMffbtLL29WxgJ9/kpdH374SX39XM1yBXWxMrNeS9nK5MoLxYzuv62srzz6pDpepJ2oqmanpYA0yiZsgzuuS1mc11U+F6pQLCjM5cmZMy4Nq3dQBItqbNTVbLU1tBSQZymcaUpyXG3BkRTOA+TjCzl94r0zymUMTrNKwDFLdECP8mAzQMuJd68NJMcABJuhKZ5Te8e9i9f2yO2stVlfo9PTdqOvjXpXm/Wejh2e1XseOO5yfMvtQ2JSiFfY+IHl+oztvskHXikFHAv0qYtb+vhfflPfWtlxnNaH9yIKhhYW0un0Sfci/ewdFX37v59VEsXa9spq4YIeE7EACuEQ6TeUCaEFXDViknG+pNR4HAqYK+RcPrx5rYblMSazsTw6zBTVb205GrEixQJVkKtSOGT0qffu07EDBTc/B7D9Zxnucyx+d7EOCLumGSXt3rdUzZZtbRcXO4xGYAIGibtv505XTkZPR88dqIxrwFsdYJjMzs5qfh6aslz8+2SsLxgwbaL1bDHW0lxJv/9Lr9I//8Gb9fBD9+u2fTlt7/S0WoNOCFz2QQsinADiaAJpgidgzSQobqJmNQ1ox8uWyM9HET3LuzFg9bFWz7IK/g3hRg+l+nB8Cn+79XHv6L5QRxehHluo/bNv8Z0Oef7qdkuNZp85jOZieBl4BvKuVe8Cbu/fqAJprpBy90bj2TUnDmX3DSZvijHrT1CuFUf9fh9j66rb7mpnp6nzFy7qzLlz7v73y1iLNgDXargzVmBl7DSAW7lsFPLJzz2tz/zjad02l1f37FlSkKxWOwFWTx+qMuPYtHOR6opABvBBnIcz2xQpFRWqS2o3mrp/YYrSva1rGw2tdZkQXuHKdFFodGsog0KHuGC5tVWWv/LTVb3vrXMONFusgdAhr37i5EWduLhKXl/U2157u6pTeQeO9bPy3+ZsAFvWZOAEroxnge6PgcgpMzawnScaqHYPigxRiCtwANnRjp3bCzT7vlmwUwIZi1n50uKiDh484L63K2MtmnlqbiqneTKEGQJfYKZ5XfJwpJsYH0HnKMPuMjj3LIIbvwZQiO0xDC1VYwU942BStl63h9vFZDBMnL7MjwBI6kd+a/33z8R60+sOQTsMahZtiyQrmasYT5stj8Ax2W609OyZFV1ee0knLlzSVYKdzWN3oW7ONk/Or6439cnPPqWvPHnBvW9l+d994XE99uXvOOu3/9998kl987F/d/M3D7iMlT7xyKOU+j2GgeauXtUzX37MXTuQGXdtZUV9jM+obHV1zT17uYwFer3W0e/87VN6/589ro/99VO6sNrEKhM9e3pT//r0NVfQWJ5pKVLqTGHkik7rxoU+QZFqzIDsd3ZcWmf8bavs9nuUuKRVPGwzprlyGGco4bu6cGlLX3n8BbIrAmLf9jkMK48FWCbimJIj//mGbfhMFa1indJMuaxiDq+4bhA2JevrLA4QeoDRbjaw7FEZbl5xZXVb65s77vmAtn7iOa0995x7Zn0ufPd5PfUfj6lRQ4HM4Rtf+ic98rnP6irgGr3UN1b1+U//sc69cNIpxoLG0FLDl8lY6ri61tRDD39DXz215gY9NF+h5M7p3KW6Xry8pSgbwJtZtV88pzZFyVZCrmrWg6atuvLINILhFlYKp/VaGCa8XJ6h2JhnvEgHS1nlQWNlta7NHaoy5jmaUUbD3vaIo6nUUlzYD0t6x/FZfeRdC86TLMc3SrN2Zb2mlbUG3pfX4lzF7c5Z3m9BarQzOOpvm1i9bv+6JTIm9zuA7yjGVbjEkbZtiKXKQoVmIOaFre1tlebmHNBr585o9dxp3f7Gt6hQKjpQLz1/QrMHD/FOTjnqhOP3HleM0ezKWIs2V6oTaDA4uLCn58+s6ZFvrOj0lZoygDxdjFTNhyT8Q6x1FDQgDjSIyzvAKGD8CoUe7g8FuB08qAF4eGa0wELpG8bcS3pKes3r980ruiwC8Mm/00Gd40DPXGiqRgA2ruQj7mg8Oj9T0muPzmt5rkzaFxJ08RRAtedmmcbNzqoB2zzOJmfXFthil65hHKY0KC6KY9ZGemnv0yLOS3P73LXVENPLB3XXmx8gzYsoLEeBb+nuY4qoYM3rFuHoiFjzchkLtHGoAxHtTO+bVqWaUwmenJ6OVCmHysdkDaRt8AGTtf0JNGJAERhM00nf3JEJqcJ9C2gAj9aSLuBZOc741yxVtKCTpTpsUP5ubSrZXlHaxp0b6/TfIRuhNGe261j9v31n2wHnQOPTbquV0Y0urNmeywBATAxkBzRcnBAbRuBxzvu7Y9g959goxcru3Wc3GvfsHQt27h3Xx/jYjpZxmVLxVLznAEFwfmHBAf5yGQ80IGNbLCByG+ylUk55KkKUCZy20BEXjyzQJkoQoHnQRsg9K0p8LNn3yZddRUsfFsesCYpdlISnAEqzBzCMH2GZnpWIA1KQHmOhELcf3arR1gGjr3/4Vl0nV+BZW7gBx/yMJgxcawYGk3HB1YBzAF5vBsjofAQsf9z8TRF9FGFBzFqbzKTR7KhWa0F5iTIYWiYTK5fLsP6syuWCKqW8qpWyZqandPDAso7fc0wHlpcdLX2/jOXoE2fWCYRP6HI7JGUysDoASBXV65AfD5UHzAXc/ux3zisLX60zqYaV4KFtLBVZEPUkYNi+wqBxEfzqCsihvXyR56GOH5rXaTKBkQdi/VSVBsCwA8CDtjzoJEO53mPRaa6koDjvPGVxuqyH3lrlfdI43rRFjFZiKdcoR+6j1G+dqZOVwPFYXb+1zT2XWbvA3CD/HWQK6hMYrPhqkPGY96IKlGgprOXnqT7+/jfroQffYIPzLl+7bqy7VmvH3fZKMhbop19Y069/5pu63PQ0Wy0QOBpMmoIDy/ABxpY57adaOfGicpTWG+S0LZSRkAsrhi6gCnPsEFB79Ytwbcdtb9r+hReletWBKZ3d7LAoLA9ucBs5ztrM4sm5g5SwyD0svk3lmIbG9RmF5WXl4NU3HC7qrXcXdKAauv1jA7rRSfTCpZb+5ZktnTx31VmxuVOyflalQoXx+gS3K0yvKlVnXNDq8dxwImcabQGEMaBDQ31ff/gbP6/f+uU3jgC5SRkL9NeeW9VH/uZZnasNcJEs1tklYI2s2eWZLGIGG9g4dYqyOdbVDayGKG8/D9kvKF5Eue0CIJaUtF32YL/CmHsHXqK77pzVadKrvuWk+WmM2dwZuLBAtxHF9wIUmyGAJgRjS838ChyYnVbSqcnPLbiMoRKnKhHUUqhlizq+Xtt0Chm2tzXcPIezwN98Ow+orbVLXA+Un5tXREvhdUvjfFd4YJl8y7ZrB32+OfD0qQ+9TR968HVuXjcrYzm6QSoUw5nmrj0404qLgMmMElRzFypB8uTIeGu6qjwclmyvy+s0FAxa8hsvyWtcUlp7CY4liDXh2samUjjXA8AV0sLeVQIfFWOydQnK4Hlzg+/wLTIQ854e/TuMNyQoxhbsNi5rcO0kVr4DYFAC42/sNHRhs67zly5op0VW0ljTcOOs0uYW/bqKUHSWyrZ1zQoVbMuKIMp9VgNN2G+WVJrWWE/qyv4Yg7CMafRj8q3KWIv++/88qz/94mmdutZ0gc+5F6+41zwLhkNVg0Th1mVlcgVdOn9Gnbptk1Li8r4VMrZvYVF691PutzrnqhbG4EQbN6awgce9qVmpuc1xn5L6mrxCCbcnuBIQ00YNN88rLEyTapKdMJZHkZJ6jBVWXCFkSvLiEkBvEEhbAGz731mnuP7GNTeHcHaJFC6HwQN0zja3DFAAtsXZvGkhgBttWCX4Fx9+iz74C/e6ud+sjLXo+47OaHk2T+mbd9VXMZcn+tpP/DSOeVpIC+C0+tVV9WpYJNHeglnSBhy8wMMLbOfPbaZzHQByzJeNfiAZRSw+ovqL6B9cu6gQCwzWVhRgxf7mZQWbqwrrm4pQWEgQ8+pXlfWHKmTIhAiucasub2NFw7WL8loNhaSEBYywXCyqQGyQWfXOumK350EGxLrcL/EEvJRsKPULgJxHaxxh8JSc3/jZNhYsgyiQdt6qjLVoe1xvEZEJcgOSecur//dIdkBzWQUuPCBq24aNWawl/nbfNcth7Xi9r13bXogVA3btSl+e2a83N/owhstfUUZCJpDyjkvLLCvgedf6EeNs86pULgIiwYv+cIB2SGGa2w216zUNUJqtwc3TMj38LAliTU2V1cRiaz28E3pIoMEEChyARo9vWPbRavb0ulcv6fd+7U06sGB1wM3LWKBvWnaHNf6wUzv+gIw2pH5c+d5XRoPvZlajZ4A3OrxMjO6unyKWilkA3JUb73G0U5uX5ddWlo8q3h+6gB9ZfnJAT+R7ZCxHT+T/RyZA75FMgN4jmQC9RzIBeo9kAvQeyQToPZIJ0HskE6D3RKT/Aa6kQBEVgdPDAAAAAElFTkSuQmCC;" vertex="1" parent="1">
          <mxGeometry x="973.0799999999999" y="180" width="103.85" height="60" as="geometry" />
        </mxCell>
        <mxCell id="BKa6lrO8mXoM_aZvaMz--56" value="" style="shape=image;verticalLabelPosition=bottom;labelBackgroundColor=default;verticalAlign=top;aspect=fixed;imageAspect=0;image=data:image/png,iVBORw0KGgoAAAANSUhEUgAAAFEAAAA2CAYAAAC/fnXUAAAAAXNSR0IArs4c6QAAAARnQU1BAACxjwv8YQUAAAAJcEhZcwAADsMAAA7DAcdvqGQAABQGSURBVHhe7ZtrrGVnWcf/a+2173uf28ycubTTTqelpcUCBWm5SEz1k5UEBdJojFY+aBQSY4xCgonGL8bgB1Q0mpAY/GZMQGMCBBQMyge8QGnLpbSdmc595tz3Pvu+117L3/9dM6Ul7W6T9hBOMs+Zdfbaa6/1vs/7f/7P7d1nohzRDXlVEl97vSGvQm6A+BrIDRBfA7kB4msgN0B8DeQGiK+BvGYlzmyWaZrOpB8aLvePL/EriiLFcaQojhVzbvG1l5UfusVvnz/NdDpTfzRRkpRUKScql2LGLeZmtvDAC4fgqq+9krlfgcwF0R+dXRvqu+d7atTKYVLPCwaAUBxWYzYe6Uv//oSePHVR096WSvmMZw1oCrhTjrRYDg9WK1WVy2VVahUWXFat4nFjZR67FGnGnHmeidPwjDIvNijKfEzMMcOBqo26VEo02O3r4lpH6xs9ruZq1ys6trqopZU2Y5SUTsfBwAnKZoyRVRqqNxp660/cpOM3ryrnenDHMIkP/4swRKRqIt16ZCGsfZ7MBXE0SfUn/3han/vmjiazSNMZyyoBXqlgVZXzMorH2+dVGQ90eWNL/XNPKZ6NlE4mgJ0qA0Bm4ZlSAChJDFpxzqMs1IsDK97nSaIUoCOAjWMG59lsOlXW6ysHiJjnknpDrUNHYf1Uw8lYaQZ09QVlcT0sPh/3pclIpXFPNYBotpsAmWt3ZwM9eP7gLUqqVS3Wq6ocO6FBXFYDY6Y8a0MaDMNqo0VxroffcVh/+MtvwODo8xIyF8TBONUf/P3T+pdvrnMjbPG6IxYDiBnTmS3LlViVzkUtwqxnLlzV4PT3NO3vKOGeWFNeUS6boT/vDATsiUsVnselAS0u1zRh4Fl7SfnisjLcUbA1T8cqlauaDXqKpiNBNdVyFlxfUm/U15jP8sVVlVpHlKVD5oBtC8c03T7HyIzBnHnnskq7a6qXK2okVW1vXla0dJg5KzrUbig9cJN2o0Steh2SsDhYaa2TOAnjeb1vvrmtT//+fTq0DPNfQuaDOEr1EUD87KMbOrJUx/ViwSGlqd3TLiKdWCrr/OOP4VY9ndseaXjlEotpKq43ARyLwqwsj1SygrOZxpOpaQcTUx2/5WYxqNZGKAzYcXtB6QjQADdPJ+HZMucZLK+NYOog17C7o9nyqqL6MuMNVFk6iaaZJv11lZvHlHYvqto+onSA93BeSlj8JsDiGVViZn9zk7FTHb35kCq3vE4zXLucYFR0dJyyZyQsbDTN1B1meuuJZX36996sA4vVApQXkbnZ2ZaAjMF169UykzE4CpRKxCyovlyLdaQNm7BDhgvl47HilUOaNReCi+UsJoMdWjqmvLGieOGgKriTFg8rA4QURrQOLCpaXpFavAJY0mgHd49ggx0rg70LtTZxMtHQ6uKCMeNXFm9WsnhLiFdvPN7SIw+e0G++q64P/swJ3X+irna7rvLKbYB8XFm1rrza0DQqa2UVfUiAeUa4IczYsOlsgpdwwP4c74miGYA7zJgoeJxdbo7MBdEcnQUf9hvbm5hWZvDwlnOzywCWcI24qaXjdwNek0BX06wMiEkrHFGlSbzJNSZOJUTrMm6bLK6oDnilFvcR/yowIsQ0FhWOFHZOU5Wd9fsTDfGKaOmA4sYqWjcwXKoH71rQJz7Q0l8+3NBv/3RTj7yrpt96sKU/+0BDf/trh/We+5YVpX1FTcLEweMaM/4YNh46cauSSoV4OgkAOpHNOCJ0HBFr7WWgbG3CuSuKefIyILLwNORVk4IJM6Vcm/o65xMsCkn5rKScOBclNeIZblxdIuPAnqTBDChLok4do1g4ZlG5RhxaXWJxuH2pipK4LKA58+aApSH37rLk3VSTzaF6O8Q8GOqsTN5Uo7miR97Z1B+9p6G7jyYhVATW4pJeeoxbnjhU1kcfaunDP3dYzdXbMGQNHSNKoaGWVw/q9pPHAtMIaKzDVQRJzDpyTDFehiGxJh8bULPopeVl3RnHcuCE6imUn2lIthyQtUdM1OXV8djBGKwZjQxWAphK22+IR04iSYhtcQX3arZVpQRptAACd3MWZohQupRtiM5Y2p4o2xwQ/2DHEBBT+ACApQasgvFm6fveVNGvPMB4DsrXMqqlKMEK1oRzwH3/21r69Z/CsJRaUeuAUvS4tLGtAfPOAGnGurLM6wA8VxKMlmL1CYycTWFpKM/my1wQZ2SoooDOcMWJdnb66u5M1O3YBaQeCIRajvOkRC1FGZNTMkThSIKCKQlCxJgyJUKjRY1WL6u51NDKYluNakVTLNUmsNdJLhoxVw1Xxc0jXD5eWiWOLoXSY8ai4riqg61Ev/T25gviVMlGwoDXAWTCsHAbxwb8xbe0dOfxVULI0ZCZRxDhwsaAMZ0kpxqNhwEwh6fUxMBQKZ5hgyUw9eVkLogp9CJ3KCVhXDi/QYkw1G5nqt1uqo0N6jSIs76LxZjHNZzr65hSwu5ZeICdq48DUvLEA44ZV6ZkaAyBsr3xVK1KSQu+k44jL9eVNA/AWOIeoaFcP8RYFTAhw2MQs+LBu6tabpUCQKAWQLLHDIZ4CMydUhMaRANqty5h2Fa9pF94SztkbCfhGd4xY01mnOvZnEw83hlo48KWNi5vaZPifeQOyEZxeealzJG5IE6wxnA40eGFqm4/tqK7b1rWu+85rCPUTHEWabs7Q3FgmWA1VmLmOQC4BozMDIfy2VWqf5JC7LSUEkun1H81XIhYREhowqh8hDXQ1Mt3hoSTGIOyIx2FMWNia8nJiWfuv4PY5pud1Kwk5z0A/M6ZLf3Xdy/p0mYft7RTuNZzLeuyJdZ9tzbUJpmVV44Tt6lNBwN0Q58+ZdlWF4AnGDtSu1bF2LEGXE/R1WwMsXOOzAWxWY1194kGwC3p7Xe19YnfuFOf+dib9KkPvUHvfl0LBaba6OKudDNlLG4xA239kNGyDpW++2QyOdcmTkYsbAQDxzAx4eYmRfiE8yFsCCwmQdmFDi/kqoqakTgoSpMM5pjqR6hLzTK7nOcykBfWe/r8o6f01SfO6EuPncNdZ8TjQh/fFzPHQqOkeokY2N9UOjTQMLHfU9YfKMZYJ5szvbN+Wu9dfFZ3VQc6jAsexMAVJ8PCrV5S5oK4sljTHz9ytz754Xv1Vx+6V2+7B1cjtv3k61d0z/E2nUCs/oTFBBaRWZksZDgs52sGs4xrm5MVmJSyuJhOI3QrMDkjDuTEXecj8j7vYQdnDWrSN55s6+gBWAcb3Pq5v/ZizHhvXvjnep8wpIDvD3d53q0gcRhjFfAWYtfPrwEfuRqA5VXicU5fjU9rgXB+ZPi4Glf/Q8OzX9Htm/+q+/tf1AODf9Mdw/9WKaNBmCPz3ZlFP3uZTmR9qM0ei7mm9BQ33ya9OVuzFtQFPH+Gsu4wguUAh4+K+OgERavmLO8E4djmiSewzwsGF5jMY7NhGH9nd6Avf/2CTl3ohPHhE2O4you0tk1sZBwnkzAP/04eWdJb7jhOyFnVO+86EjYhPKfvK9NGzjDsGpm/5xxnEEmCVdiZYOywWcI6Krh4E0MnJK8xuu6un1Z/4/vqX34S4/PgHJkL4jMXd/W7f/Ntve/jj+nhP39Cn/7KJX3tu1v6i8+e1pef2Ao1I707YFLZg0LJGZpFmyleQJ5XsH6BQ0asiyhuieRco4wBuVDII/VmRU3av3K1xbMsetrVLKHONE7ZLs8DPGxwiPjaU0Pnk8Azs9MAtXj+599+h97/7tfrjbevqkqy8s6NPSHgzPH1p/oYjeK6t6EM1trdneiifEzJNtXlnFayfEyLtUPq3/KQnjr6AT1x8L06136A54MlX1Lmgug0PxxNdfpSR998ekMf/Ycn9fDHv6W//sKzOkst12wWmS+AxlIrWNcDhkENYuzGvkg0xssl08ybCbwahsBgziq0bmPfPx1QCVyGGb0Qx+KIT9Ot4j3JCNj11ae6sMpGcNxz8R0mC0ZYalVVJcQUISUPW20GsNNP9YVHd4IbxxgKM8E82EoIKSV4GF7wdC/W53WvPqv79Y1OXVvTWN2MWBwVu0PzZC6IDi1DlIhgmBPEhEzdo65JcYOVxTIMcLC20p7GANrNDCgPWUVCyUxtDVPqwRmfom1O8TwZjag76bO5dxMjXSETxrAny6ea7m5SZO9o2jlFxrxiCvPMrmajS7BrV1uDqf7uK+vBDnZZe0DRloWcHa7bqAWAhR6f+78tnb3S0XTzHDa5QJIBHJuW/hhciY+Ek2pJfcJXl8PEq9AIhHXYu14NiDHZyQrGWHxlqanDRxs6slrW6gFvH8Wq8lmdxQe3dnaGAd6ENXR21xAPI8qZ0jJXKFHgQJ6jHLfYJZ1Ap6y6hzsNsVhU8TYYKuFm8gYB48bEzyi1C6MHSYmYoP89TdE/4B7Eicbx0a7rCsBdjPU2G1OShtu5S1uEEpdcLq8Ya6VVp5TxNlyV0gkUma+UYO5mrHbLCdH9s69RCXjzwmubI3NBNBDe+XWyqJIxayzSSrrbYoVhQV6EfdX8s+NSi4Tk4a36ouUzI4hdZOJxn9KCmi6lOxlskTRcPlDOOClNWXTGXJF30O2SMeNQqJfKOV0KXcy0D0PXNOmvMTmdRdFvFuLX579lPIeOUCVwPul1lBELKWi12qJTItkMRgPQqjB+U9VaW0m1hseRwfnxawmK0mdBABtuLkzzQZzQsVhXs9nVv6UCOB7TLZLZ5K7DXwVEjlFQrET9Fc1GoZC1eGfbG5z+CsFdR+a2iqxs4GOY4eLaLVeIY/zEdCqleouDHhw/mzn4l3K1qhhk1Anhwslkim4BO0B6TjgPO+Rc8msxIud0Jdn6GVXRq9Wsa3NzTYMBlQBAlYiR7o5yDJ7zPge0pMrcbggggI+w0DkyF0T3tYVLF5uVvnviZp3PvL3vYwgw01EXnEfqbp0niHYUT/oo3sVtUdSbqw5U3FtK6HnLFM+M6w4hZyHO2ikxcDZxL+ue3OmciWgjmZyDxpHPKuUoFOZZZ03T7WfVM5MCRIUYzIuUYn3c3FdDMiC42UfGg36I6Y1mU2tXz+vS+XMkTOa61u+75LHxItewgBZXGiEPeAfKMfEHPfmLy1wQXcM51llBx67QKXAeVOc8eLIDOQG6hhvaTfJt3I2FZgCbD0gSdAhZbytkqYjyxVtM+QhwydK9nY7Wnz2jvLfJeLgzBjDYmYtgg4k7ZrB0NMFAnQ3i2bjoOnY31Nk2iIVYo43OUB/51Df0mf9cD2NYx+u/J8OelhcXNd6+qN7WZXTwxgokwFhjkqK7KFcQUyfIhBhIhxTBypTPc+L6q2Jib4gr8epGfcBC3Ou6D7WVnbmtiL/MShp1PKMMwHZTOobBrvJNSpWN80pPf1vpM48pPUXRyjF7+nHNTn9L2alHtfOt/1H/O08oO3+W4xllXQO+znNnA6OznSt0NoQA2rTxxiXtXnxSUfeq6gTlDgV5IBv6+WjVy3rbnW3defzaNr4vXpM6MX2yfV6j7hqe21D1ppMqLRykwCmTFCl4oioAwnqSoPv0WV7SFBY7nuOGAYN5MhfEBml/PPYGQ6q19YGuXB3q8tpEVzZTLJ+q25/R99LjwsDtzkAbG2sa0thPez3Nul1A6SgiFua4XuQDMCJYEQ9gKcE+3+Xz3q7izQ3FMDI5e0bx5bOqTIYqOSzQ00YwUOuUOr4XQ2bbV9U/+31Cx0axuGtgucD+nfffqwfo8wO6FjMSlg02LxGHSFIGHdepuK4p1QCKohwAfbgeTGkOCPHE+ZwQgucYQB7yvuQ8mftF1TZ90p/+0xk9fm6XJEMsvBYjnZ29lZ7CzASlWmTOI9WputssmIybOJYxbBklXDR7AtduLpcc87jEa0qcco3HOT/et/SOsjdDJ4zpuZyxi53mCYak27HbQXYP+LPvuEcPPfSOcF7UiZzyuaWYx0mmiMWf+OQ/68zlbtiVosxWbWFZSWtBp3ZoOwHQX6gV8dO6Ahq6+ttJ71l+8MFb9LFfvQ9d/Z3Pi8tcEIPwse/wQq2j1fUk4T2p29nb70J99gKD8Sa8f8HFVy4vopavGBhjc/Xqhra7vQCWNxicsb/32LfVXlrQrbedCNO6KvDsd5y8hfb0B8W3xd9kOo4Ox65tib0sLrz6HoPIUcPIt9+8rDo15Tx5eRB/TGV9fUtXOCzBqIBw+qln1F5coCk4XIAIKK5X77zj1lCM75XMjYk/zpLgXtdrV4td+LY7b9fqkdXiAtxwyDGIjm17KfsXRGLW9YAffvPL8TdcKy4H1yz5WvF2z2TfguhvEq+D53hEFNPO9o46HbL4tet2czNxr2X/gujyI6DlRFAkkQG9+WhEGeTMw3V//HyX3yvZtyAanOQ6Gw0YJ4eJhwcPHAgMtFx7ee79Xsk+BtFlSOHKxS/iZFJ+DljXHL78oyg+9jcTKVscCw2m2ZZOxnRYxfc0z7GweNlT2bcgGjTvPgeBbAarR2vY36XdDG1Ncc9e1ofXZd+CaPFmscHz4Q6q2V4IRxEDA0cDW/da9jWI1+NiOPipVKqqeoeaC/561jWia8e9ln3OxDIglYq8QncyISZOvBfJFcfMG+78CsTf9IViGibanYeDHkf/2qdFVvbu0V7LPndn3NWM49xHObhzNXwPE3pnX78B4nz5wZ+SABgvjXpTtWr9uS0tf/l1fa9xL2Vfg2iW2V1d0hhL72sGL+aNd7DDHzDdYOJ8sSuXiYneSzSQ/u8dg1Hxf1pCp2Jgb4A4XwITnZ3zgnXhy3oATDn3e2dm7/bstexrEC0Lbf8Fg/8zT/HNpIFzLDQBV1aWQkG+17Jvvx54vvivGa6uranb6TowqlKuaGl5UauHDv0I6kTp/wHvgIdsCcq3qQAAAABJRU5ErkJggg==;" vertex="1" parent="1">
          <mxGeometry x="980" y="245" width="90" height="60" as="geometry" />
        </mxCell>
        <mxCell id="BKa6lrO8mXoM_aZvaMz--57" value="" style="endArrow=classic;html=1;rounded=0;entryX=0;entryY=0.5;entryDx=0;entryDy=0;" edge="1" parent="1" target="BKa6lrO8mXoM_aZvaMz--56">
          <mxGeometry width="50" height="50" relative="1" as="geometry">
            <mxPoint x="820" y="275" as="sourcePoint" />
            <mxPoint x="1020" y="350" as="targetPoint" />
          </mxGeometry>
        </mxCell>
        <mxCell id="BKa6lrO8mXoM_aZvaMz--58" value="" style="endArrow=classic;html=1;rounded=0;entryX=0;entryY=0.5;entryDx=0;entryDy=0;" edge="1" parent="1" target="BKa6lrO8mXoM_aZvaMz--55">
          <mxGeometry width="50" height="50" relative="1" as="geometry">
            <mxPoint x="820" y="210" as="sourcePoint" />
            <mxPoint x="1010" y="330" as="targetPoint" />
          </mxGeometry>
        </mxCell>
        <mxCell id="BKa6lrO8mXoM_aZvaMz--59" value="" style="endArrow=classic;html=1;rounded=0;exitX=1;exitY=0.5;exitDx=0;exitDy=0;entryX=0;entryY=0.5;entryDx=0;entryDy=0;" edge="1" parent="1" source="BKa6lrO8mXoM_aZvaMz--8" target="BKa6lrO8mXoM_aZvaMz--54">
          <mxGeometry width="50" height="50" relative="1" as="geometry">
            <mxPoint x="970" y="70" as="sourcePoint" />
            <mxPoint x="1020" y="20" as="targetPoint" />
          </mxGeometry>
        </mxCell>
        <mxCell id="BKa6lrO8mXoM_aZvaMz--60" value="&lt;b&gt;&lt;font style=&quot;font-size: 15px;&quot;&gt;Servomotor&lt;/font&gt;&lt;/b&gt;" style="text;html=1;strokeColor=none;fillColor=none;align=center;verticalAlign=middle;whiteSpace=wrap;rounded=0;" vertex="1" parent="1">
          <mxGeometry x="994.99" y="76" width="60" height="30" as="geometry" />
        </mxCell>
      </root>
    </mxGraphModel>
  </diagram>
</mxfile>
